<?xml version="1.0" standalone="no"?>
<!DOCTYPE svg PUBLIC "-//W3C//DTD SVG 20010904//EN"
 "http://www.w3.org/TR/2001/REC-SVG-20010904/DTD/svg10.dtd">
<svg version="1.0" xmlns="http://www.w3.org/2000/svg"
 width="300.000000pt" height="300.000000pt" viewBox="0 0 300.000000 300.000000"
 preserveAspectRatio="xMidYMid meet">
<metadata>
Created by potrace 1.10, written by Peter Selinger 2001-2011
</metadata>
<g transform="translate(0.000000,300.000000) scale(0.100000,-0.100000)"
fill="#000000" stroke="none">
<path d="M2010 2562 c0 -4 -13 -23 -29 -40 -19 -23 -34 -30 -45 -26 -13 5 -17
2 -14 -12 2 -13 -4 -20 -19 -22 -13 -2 -23 -10 -23 -18 0 -21 -21 -17 -27 5
-7 27 -45 40 -128 45 -52 4 -73 9 -82 23 -11 15 -17 16 -33 5 -17 -10 -21 -10
-26 3 -8 20 -31 19 -42 -1 -6 -11 -11 -13 -16 -5 -10 16 -36 14 -36 -3 0 -25
-22 -30 -38 -10 -13 18 -14 17 -8 -13 5 -31 -6 -45 -19 -23 -9 15 -25 2 -25
-20 0 -27 -21 -36 -36 -16 -8 11 -14 13 -19 7 -10 -18 -35 -12 -35 7 0 26 -11
34 -28 20 -12 -10 -20 -6 -47 24 -24 26 -36 33 -44 25 -9 -9 -17 -8 -32 1 -11
7 -24 10 -29 7 -5 -3 -19 0 -30 7 -17 11 -22 11 -29 0 -7 -12 -12 -12 -30 0
-19 11 -23 11 -32 -5 -10 -17 -12 -17 -29 -2 -17 16 -19 15 -30 -4 -14 -27
-27 -27 -35 0 -6 19 -8 19 -24 4 -17 -14 -19 -14 -31 0 -7 9 -19 14 -27 11 -8
-3 -23 0 -35 7 -16 9 -22 9 -25 0 -7 -19 -30 -16 -38 4 -6 16 -8 15 -24 -6
l-19 -24 -12 23 c-12 22 -14 22 -25 7 -7 -9 -22 -17 -33 -17 -11 0 -33 -5 -49
-12 -15 -6 -35 -10 -45 -9 -9 1 -24 -8 -33 -21 -16 -23 -16 -23 -30 -4 -14 19
-15 19 -15 -7 0 -15 -5 -27 -12 -27 -6 0 -20 -8 -30 -17 -20 -18 -23 -16 -43
22 -3 6 -7 5 -11 -2 -8 -18 -24 -16 -24 2 0 8 -9 19 -20 25 -11 6 -20 17 -20
25 0 20 -21 30 -31 14 -7 -12 -12 -12 -30 -1 -19 12 -20 11 -14 -7 5 -17 2
-21 -15 -21 -11 0 -24 -8 -27 -17 -4 -10 -20 -36 -37 -58 -45 -58 -56 -81 -56
-115 0 -16 -4 -30 -10 -30 -5 0 -10 -9 -10 -20 0 -11 5 -20 10 -20 6 0 10 5
10 10 0 6 5 10 10 10 13 0 13 -26 -1 -48 -9 -14 -5 -30 20 -76 17 -33 31 -67
31 -78 0 -10 5 -27 12 -38 10 -15 9 -24 -2 -45 -11 -21 -11 -28 -1 -38 11 -9
14 -9 18 1 9 24 21 2 14 -26 -5 -16 -3 -42 6 -66 7 -21 13 -47 13 -57 0 -11 5
-19 10 -19 6 0 10 -16 10 -35 0 -19 5 -35 11 -35 6 0 8 -7 5 -16 -10 -27 2
-53 23 -47 24 6 37 -38 15 -50 -8 -4 -11 -13 -8 -19 5 -7 12 -5 20 7 16 22 44
13 44 -15 0 -21 15 -27 25 -9 5 7 12 5 23 -5 15 -13 20 -11 47 20 16 19 37 34
45 34 9 0 21 5 28 12 9 9 16 7 31 -6 11 -10 25 -15 31 -11 7 4 14 -2 17 -14 3
-12 9 -21 14 -21 4 0 18 -10 29 -22 18 -19 22 -21 31 -8 8 13 11 12 24 -4 14
-18 16 -18 33 -3 23 21 32 21 32 2 0 -8 7 -15 15 -15 8 0 15 4 15 9 0 16 79
10 89 -7 9 -17 31 -8 31 13 0 22 34 26 70 8 24 -12 35 -13 38 -5 6 20 52 15
53 -5 0 -14 2 -13 9 5 5 12 15 22 21 22 7 0 18 8 25 18 12 14 15 15 23 3 8
-12 12 -13 26 -1 13 11 19 10 35 -8 11 -12 35 -24 54 -27 21 -4 37 -15 43 -28
l10 -22 7 21 c11 36 96 42 96 8 0 -22 12 -17 46 22 32 35 33 35 44 15 13 -25
30 -19 30 9 0 17 40 70 52 70 3 0 8 -9 11 -21 3 -12 10 -18 16 -14 15 9 14 36
-3 54 -9 10 -12 22 -7 30 6 9 15 0 31 -31 12 -24 31 -51 41 -61 10 -10 19 -23
19 -30 0 -7 8 -3 16 8 15 20 15 20 35 -4 l20 -24 6 21 c7 28 31 28 41 2 7 -19
10 -17 32 19 14 22 28 41 31 41 3 0 19 -13 35 -30 16 -16 37 -30 47 -30 11 0
21 -9 24 -20 3 -10 14 -22 24 -25 48 -16 -11 -81 -61 -68 -11 3 -20 1 -20 -5
0 -6 -58 -9 -150 -10 -115 0 -152 3 -161 14 -14 17 -46 18 -52 2 -4 -10 -7
-10 -18 0 -18 17 -49 15 -49 -3 0 -8 -4 -15 -10 -15 -5 0 -10 7 -10 15 0 8 -3
15 -6 15 -10 0 -44 -43 -55 -70 l-10 -25 -19 25 c-18 24 -19 24 -33 6 -12 -17
-14 -17 -20 -3 -3 9 -2 19 3 22 6 4 10 16 10 28 -1 20 -2 20 -11 5 -13 -23
-35 -23 -44 0 -6 16 -7 15 -18 -3 -16 -28 -59 -75 -68 -75 -4 0 -9 6 -12 13
-2 6 -2 1 0 -12 3 -18 1 -22 -12 -17 -9 3 -19 6 -21 6 -3 0 -9 12 -14 26 -7
19 -15 24 -29 19 -12 -3 -21 0 -25 10 -3 8 -12 15 -20 15 -8 0 -16 10 -18 23
-2 12 -7 22 -13 22 -5 0 -11 -10 -13 -22 -4 -27 -14 -29 -32 -8 -8 9 -21 13
-32 9 -10 -3 -26 0 -34 7 -11 9 -18 9 -26 1 -7 -7 -17 -8 -28 -2 -13 7 -22 5
-30 -5 -19 -23 -33 -18 -28 10 4 18 1 25 -10 25 -10 0 -13 -8 -10 -30 4 -24 1
-30 -14 -30 -11 0 -23 -11 -28 -25 -5 -14 -14 -25 -19 -25 -5 0 -12 -11 -15
-25 -4 -14 -10 -25 -15 -25 -5 0 -12 -13 -16 -30 -4 -16 -11 -32 -16 -35 -5
-4 -9 -17 -9 -30 0 -13 -4 -27 -10 -30 -5 -3 -9 -29 -9 -58 1 -118 -6 -274
-13 -264 -4 6 -10 8 -14 4 -4 -3 -2 -13 4 -20 12 -14 12 -107 0 -107 -5 0 -8
-15 -8 -34 0 -21 -6 -36 -15 -40 -8 -3 -15 -12 -15 -21 0 -8 -7 -15 -16 -15
-11 0 -14 -5 -10 -16 3 -9 6 -28 6 -43 0 -26 7 -38 58 -101 12 -15 22 -34 22
-41 0 -8 6 -5 15 7 14 19 15 18 34 -6 18 -22 20 -23 26 -7 8 20 31 23 38 5 3
-9 16 -2 37 20 18 17 41 32 51 32 11 0 19 4 19 8 0 8 13 27 58 82 12 16 21 34
20 40 -2 7 3 15 11 18 10 3 12 0 7 -13 -7 -20 35 -99 59 -109 8 -3 15 -15 15
-26 0 -17 4 -20 20 -15 13 4 22 1 26 -9 3 -9 15 -16 25 -16 13 0 19 -7 19 -21
0 -12 4 -17 11 -14 6 4 8 13 5 21 -3 9 1 14 13 14 11 0 21 -10 25 -22 6 -21 7
-21 17 -5 5 9 21 29 34 43 22 23 24 24 34 7 9 -16 13 -16 32 -5 21 14 22 13
16 -20 -3 -18 -3 -27 0 -20 2 6 13 12 23 12 10 0 21 4 24 9 8 12 66 -16 66
-31 0 -6 12 5 28 24 15 19 34 42 44 51 9 9 18 22 20 29 4 10 8 10 21 0 14 -12
17 -10 23 12 3 14 10 26 15 26 5 0 14 12 19 26 12 31 44 29 48 -4 2 -13 19
-38 38 -57 32 -33 39 -35 99 -35 35 0 67 5 70 10 9 15 62 12 79 -5 8 -8 19
-15 25 -15 5 0 16 -9 24 -21 8 -11 23 -20 34 -18 10 1 26 -1 36 -6 10 -4 24
-2 34 6 13 11 17 11 20 2 6 -16 30 -17 35 -2 3 8 10 8 27 -2 20 -12 23 -12 32
4 10 18 12 18 31 0 19 -17 20 -17 30 0 7 13 13 15 22 8 11 -9 44 1 116 38 22
11 68 81 74 114 7 33 22 35 32 5 6 -20 8 -20 19 -5 7 9 15 17 19 17 10 0 7
-35 -5 -47 -18 -18 -3 -46 21 -38 16 5 20 2 20 -14 0 -12 7 -21 15 -21 9 0 21
-11 27 -25 12 -27 23 -31 33 -15 5 8 11 7 21 -1 8 -6 21 -8 31 -4 10 5 28 7
41 6 12 -1 22 2 22 7 0 12 30 49 78 98 27 28 31 37 23 53 -14 25 -14 71 -1 71
12 0 13 42 1 56 -5 5 -11 29 -15 54 -4 30 -3 40 3 30 15 -22 26 -3 13 23 -6
12 -13 40 -16 62 -3 22 -3 34 0 28 10 -22 24 -14 24 12 0 14 -3 25 -8 25 -13
0 -33 103 -22 114 6 6 10 21 10 34 0 14 7 30 15 36 13 10 13 14 0 40 -8 15
-15 39 -15 52 0 12 -5 26 -11 30 -7 4 -8 23 -4 52 6 43 6 45 -11 31 -14 -12
-18 -12 -22 0 -2 7 -12 21 -22 31 -10 10 -21 27 -25 39 -8 27 -21 27 -29 -1
-6 -23 -7 -23 -21 -3 -15 18 -16 18 -50 -18 -20 -21 -40 -34 -49 -31 -8 3 -17
-2 -20 -14 -4 -11 -13 -23 -21 -26 -8 -3 -15 -12 -15 -21 0 -8 -7 -15 -15 -15
-8 0 -15 5 -15 11 0 16 -48 59 -66 59 -7 0 -14 6 -14 14 0 23 -28 40 -44 27
-10 -8 -16 -9 -21 -1 -8 13 -52 13 -60 0 -8 -13 -55 -13 -55 -1 0 5 -9 12 -19
16 -10 3 -22 16 -25 28 l-7 22 -16 -22 c-20 -30 -29 -29 -37 2 -7 28 -21 33
-30 10 -6 -18 -26 -20 -26 -3 0 6 10 22 21 34 16 17 26 21 38 14 13 -7 24 -1
46 26 19 23 34 32 46 29 11 -4 21 1 28 12 8 15 13 16 30 6 12 -7 27 -13 35
-13 8 0 17 -9 21 -19 9 -30 84 -25 96 6 5 13 15 23 24 23 8 0 15 5 15 10 0 6
11 10 24 10 13 0 26 5 28 12 5 14 54 -34 63 -62 5 -17 9 -19 21 -9 12 10 17 8
29 -7 12 -16 17 -17 34 -7 11 7 27 10 35 7 9 -3 17 3 21 15 3 12 10 21 15 21
5 0 23 25 41 57 31 54 33 55 42 32 6 -16 11 -19 14 -11 3 8 0 19 -6 25 -16 16
-14 44 6 77 15 27 15 30 0 54 -9 14 -17 34 -17 44 0 10 -5 23 -11 29 -6 6 -8
16 -4 23 5 8 11 6 21 -7 13 -17 13 -17 14 0 0 9 -4 25 -9 35 -16 33 -31 86
-24 91 3 3 8 0 10 -6 3 -7 9 -13 14 -13 12 0 12 37 -1 45 -5 3 -10 17 -10 30
0 13 -4 27 -10 30 -14 8 -13 48 2 63 9 9 8 21 -1 52 -8 28 -9 46 -1 59 13 25
13 68 0 76 -5 3 -10 17 -10 31 0 13 -9 34 -20 47 -38 43 -47 54 -53 70 -9 23
-27 21 -27 -3 0 -13 -7 -20 -20 -20 -11 0 -20 -5 -20 -12 0 -9 -3 -9 -12 0
-18 18 -27 15 -38 -13 -8 -20 -16 -25 -46 -25 -26 0 -37 5 -41 18 -2 10 -21
27 -41 37 -20 10 -44 25 -54 33 -14 12 -17 11 -23 -7 -3 -11 -15 -23 -26 -26
-10 -4 -19 -11 -19 -16 0 -6 -9 -7 -20 -4 -13 4 -22 1 -26 -9 -6 -17 -44 -22
-44 -7 0 5 -9 7 -21 4 -15 -4 -22 0 -26 16 -3 14 -13 21 -29 21 -13 0 -24 5
-24 10 0 6 -6 10 -14 10 -7 0 -19 7 -26 15 -9 11 -16 12 -30 3 -14 -9 -22 -9
-36 3 -13 11 -18 11 -21 2 -6 -18 -33 -16 -33 1 0 8 -4 18 -10 21 -5 3 -10 2
-10 -3z m-1716 -118 c3 -9 6 -36 6 -62 0 -25 4 -59 9 -76 13 -42 32 -122 42
-176 5 -25 15 -74 22 -110 7 -36 17 -64 23 -63 12 2 32 71 44 158 5 38 17 102
25 140 9 39 19 98 23 132 5 34 12 66 16 70 13 13 56 -49 56 -80 0 -15 -6 -56
-14 -90 -8 -34 -22 -98 -31 -142 -23 -118 -45 -222 -61 -292 -8 -34 -14 -77
-14 -96 0 -55 -22 -148 -37 -154 -7 -3 -24 -2 -37 1 -20 5 -26 16 -35 59 -6
28 -16 75 -21 102 -6 28 -15 70 -20 95 -4 25 -12 56 -18 70 -5 14 -17 52 -26
85 -9 33 -24 81 -32 106 -7 26 -14 54 -14 63 0 9 -6 29 -14 44 -7 15 -17 45
-20 68 -6 36 -4 44 26 76 18 20 41 48 51 62 20 29 42 34 51 10z m2170 10 c9
-3 16 -18 16 -33 0 -14 7 -39 15 -55 8 -15 15 -35 15 -43 0 -8 6 -27 13 -41
36 -71 107 -245 107 -264 1 -16 39 -63 46 -56 3 3 0 101 -6 218 -9 179 -9 216
3 234 19 28 65 53 76 40 4 -5 4 -152 0 -328 -7 -270 -6 -324 6 -353 14 -33 13
-38 -12 -87 -14 -28 -32 -62 -39 -76 -22 -44 -39 -35 -58 32 -11 35 -25 74
-31 88 -7 14 -28 61 -45 105 -18 44 -38 94 -45 110 -7 17 -20 47 -29 68 -9 21
-16 45 -16 55 0 16 -37 48 -45 40 -2 -2 0 -46 5 -98 5 -52 10 -154 11 -226 2
-143 -3 -163 -57 -190 -38 -20 -50 -5 -36 43 6 21 14 169 17 329 6 246 5 295
-8 320 -16 33 -13 46 19 89 12 17 26 42 29 58 7 27 19 32 49 21z m-1574 -25
c0 -11 -9 -38 -21 -60 -18 -36 -23 -40 -49 -34 -36 8 -89 10 -95 3 -9 -9 -16
-278 -7 -278 12 0 52 56 52 73 0 7 11 24 25 37 19 17 25 20 29 9 2 -8 13 -40
25 -72 26 -71 26 -97 4 -128 -10 -13 -23 -33 -29 -44 -16 -29 -48 -26 -55 5
-11 47 -33 90 -47 90 -11 0 -12 -27 -7 -157 4 -87 9 -160 11 -162 2 -2 34 -3
72 -2 77 2 88 -5 94 -59 l3 -35 -139 -3 c-83 -1 -143 1 -150 8 -19 15 -9 776
10 805 12 18 25 20 144 22 124 2 130 1 130 -18z m144 12 c3 -4 43 -11 90 -13
88 -6 101 -12 139 -71 24 -37 37 -175 23 -242 -12 -55 -41 -115 -56 -115 -15
0 -12 -36 5 -50 8 -7 15 -17 15 -24 0 -9 43 -106 71 -159 5 -9 7 -28 3 -42 -7
-30 14 -42 45 -26 33 18 44 84 47 271 3 209 13 325 31 360 7 14 13 31 13 39 0
8 16 30 36 48 45 41 89 44 128 8 39 -36 30 -85 -16 -85 -10 0 -27 -9 -38 -20
-19 -19 -20 -34 -20 -247 0 -187 -4 -240 -18 -296 -10 -37 -24 -73 -30 -79 -7
-7 -12 -17 -12 -23 -1 -22 -49 -63 -76 -66 -66 -5 -81 0 -94 31 -13 33 -40 41
-40 13 0 -10 -9 -33 -20 -51 -17 -28 -23 -32 -35 -22 -8 7 -15 27 -15 46 0 18
-4 36 -10 39 -5 3 -10 15 -10 27 0 11 -6 34 -14 51 -7 18 -21 59 -31 92 -23
80 -40 110 -62 110 -21 0 -21 -10 -11 -207 l8 -128 -60 0 c-32 0 -62 5 -65 11
-4 6 -7 187 -7 402 1 390 1 392 22 409 24 19 55 24 64 9z m780 -26 c-1 -16 -6
-82 -13 -145 -14 -138 -12 -424 4 -535 8 -58 9 -86 1 -100 -6 -11 -12 -22 -13
-24 -5 -9 -114 -7 -120 2 -4 6 -5 108 -4 226 1 119 3 293 4 386 2 146 5 175
20 198 16 25 23 28 70 25 51 -3 52 -4 51 -33z m375 -11 c42 -48 81 -119 81
-147 0 -9 7 -42 15 -74 31 -118 14 -324 -36 -438 -54 -122 -172 -180 -254
-124 -70 48 -106 129 -131 297 -16 107 -16 119 1 225 19 125 57 209 122 272
33 32 41 35 99 35 62 0 63 -1 103 -46z m-131 -916 c-6 -18 -28 -21 -28 -4 0 9
7 16 16 16 9 0 14 -5 12 -12z m-764 -133 c34 -52 20 -128 -59 -310 -50 -115
-48 -106 -41 -288 3 -94 9 -185 12 -200 l7 -28 -74 3 -74 3 4 177 c3 152 1
181 -13 202 -9 14 -16 33 -16 42 0 9 -6 28 -13 42 -8 15 -21 42 -30 60 -9 19
-17 40 -17 48 0 8 -6 25 -14 37 -28 43 -24 105 9 143 14 16 29 41 32 57 4 18
12 27 24 27 22 0 32 -21 47 -95 6 -27 15 -66 21 -85 6 -19 17 -57 24 -84 21
-77 44 -70 66 20 5 22 19 75 30 119 11 44 23 92 26 108 7 34 28 35 49 2z
m1104 -5 c2 -14 7 -34 11 -45 5 -11 18 -49 29 -85 37 -113 79 -230 85 -236 8
-8 47 57 47 78 0 10 6 32 14 50 8 18 26 74 41 123 42 140 39 135 83 135 l37 0
0 -409 c0 -260 -4 -413 -10 -419 -16 -15 -93 -21 -107 -8 -11 9 -12 41 -7 156
10 224 10 340 -1 340 -12 0 -34 -50 -62 -140 -11 -36 -24 -75 -29 -88 -5 -13
-9 -35 -9 -50 -1 -67 -39 -68 -59 -1 -59 208 -76 259 -86 255 -6 -2 -9 -82 -6
-225 4 -220 4 -222 -19 -246 -50 -53 -50 -51 -50 313 0 212 -4 342 -10 348 -7
7 -2 27 14 59 13 28 32 67 41 88 19 44 48 47 53 7z m-1471 1 c12 -10 23 -31
25 -46 3 -24 -1 -29 -29 -37 -60 -16 -63 -28 -63 -279 0 -237 -8 -302 -48
-380 -29 -58 -55 -78 -103 -85 -56 -8 -99 21 -99 67 0 29 6 33 46 30 54 -5 76
86 73 301 -2 174 4 249 29 328 31 100 112 149 169 101z m743 9 c47 0 117 3
155 5 88 7 100 0 88 -51 -8 -36 -12 -39 -48 -44 l-40 -5 -1 -365 0 -365 -61
-3 c-50 -2 -62 0 -67 15 -4 9 -7 173 -6 364 1 384 5 359 -66 359 -46 0 -90
-24 -98 -52 -3 -13 -6 -116 -6 -229 0 -280 -24 -384 -104 -447 -54 -42 -135
-17 -139 43 -2 27 1 30 28 33 17 2 37 10 47 19 22 19 32 109 30 258 -4 231 26
385 87 443 32 30 40 33 76 28 22 -3 78 -6 125 -6z m570 -24 c0 -22 -9 -45 -23
-61 -21 -24 -25 -26 -66 -16 -64 14 -84 1 -76 -48 3 -21 1 -77 -5 -125 -17
-125 7 -135 63 -25 27 52 42 59 51 22 4 -15 16 -51 27 -80 19 -46 19 -56 8
-83 -8 -16 -17 -30 -20 -30 -4 0 -12 -13 -18 -30 -16 -48 -61 -36 -61 17 0 8
-10 28 -21 45 -36 50 -44 23 -29 -91 7 -54 10 -120 7 -145 -4 -30 -3 -48 5
-52 6 -4 43 -8 82 -8 l71 -1 9 -43 c5 -23 6 -45 3 -48 -3 -3 -66 -5 -139 -5
-167 2 -173 6 -163 101 4 36 7 204 7 375 0 250 2 314 14 332 12 19 24 23 96
26 46 1 104 4 131 5 l47 2 0 -34z"/>
<path d="M1068 2210 c-1 -82 -2 -162 -2 -177 -1 -34 27 -43 56 -16 29 26 38
47 49 115 17 107 -24 228 -78 228 -23 0 -23 0 -25 -150z"/>
<path d="M2017 2303 c-23 -85 -29 -213 -18 -338 11 -117 27 -174 63 -230 31
-47 52 -45 71 8 60 168 38 474 -44 589 -33 46 -54 37 -72 -29z"/>
<path d="M2970 1800 c0 -5 7 -10 15 -10 8 0 15 5 15 10 0 6 -7 10 -15 10 -8 0
-15 -4 -15 -10z"/>
<path d="M1467 1486 c-4 -10 -5 -21 -2 -24 9 -9 17 6 13 25 -3 17 -4 17 -11
-1z"/>
</g>
</svg>
